<svg width="474" height="554" viewBox="0 0 474 554" fill="none" xmlns="http://www.w3.org/2000/svg">
<path fill-rule="evenodd" clip-rule="evenodd" d="M0 499V504L8 500H34L77 510L162 543L213 554H239L243 548L185 534L182 530L112 506L110 500L143 501L183 510L186 514L242 535L282 545L329 547L369 537V533L323 534L280 530L279 527L244 519L180 496L113 482L54 483L0 499ZM251 222V231H253L254 232V249H265L266 248V245H264L263 244V226L264 225H266V222H251ZM399 106H391L390 107L381 106L377 108H372L371 109H368L367 110H363L362 111H360L359 112H355L351 114H346L345 115H341L340 116H337L336 117L327 118L323 120H319L318 122H310L309 123H305L303 124V126L302 127H300V131L301 132H304L305 133H308L309 134H312L313 135H316L317 136H321L322 137H325L326 138H329L330 139H333L334 140H337L338 141H343L346 143H349L350 142H355L356 143V145H359L360 146H363L364 147H370L373 149L381 148L382 149V151H384L385 149H388L389 147H394V133L396 132L397 116L399 115V106ZM87 108V111L88 112V123H90L91 124V133L90 134V137L92 139V147H96L97 148H103L104 149H107L110 147H114L115 145H122V143L126 141H131L132 142H135L136 141H140L141 140L146 139V137L147 136L155 135L156 134H160L161 135H163L164 134L172 133L173 132H177L178 131V127L176 126V124H172L168 122H164L163 121H160L159 120H156L155 119H150L146 117H141L137 115L129 114L125 112H123L122 113H116L115 112V110L107 111L106 110V108H104L103 109H99L98 108V106H96L95 107H88L87 108ZM238 0L227 66L178 98L189 109V147L172 156V183L186 189L169 421L84 441L22 479L68 466L130 461L173 468L270 503L333 517L402 519L449 506L474 490L419 487L317 447L292 195L308 179V156L289 147V109L298 106L301 97L252 66L238 0ZM138 444L170 439H203L226 442L240 446L248 445L251 449L264 453L271 452L272 456L326 476L338 477L341 481L389 494L399 492L400 495L413 496L415 498V502L409 504L376 505L375 508H365L364 505L344 504L299 496L296 493L268 483L257 482L255 478L224 466H218L215 463L175 453L155 450H139L138 444ZM227 197L260 190H275L278 192L303 434L302 443H295L294 440L287 439L280 434L278 371L272 360L264 356L253 358L245 369V389L248 390V397L245 398L246 426L238 427L211 421L214 356L212 333L215 332L217 297L215 274L218 273L216 251L219 250L221 204L227 197ZM231 162L233 160V158L235 156H236L237 155H239L240 154H261L262 155H268L269 156H274L275 157H279L280 158H283L284 159H287L288 160H295L296 161V167L297 168V175L296 176H293L292 177H288L287 176V174H285L284 173H281L280 172H274L273 171H266L265 170H232L231 169V162ZM218 110L219 111V142L217 144H206L205 143V113L206 112H208L209 111H213L214 110H218ZM260 109H267L268 110H272L274 112V128L275 129V144L274 145H270L269 144H263L262 143H261L260 142V116L259 115V110L260 109ZM230 107H249L250 108V142L249 143H244L243 142H238L237 143H230L229 142V108L230 107ZM242 88L243 87H245L246 86H247V84L248 83H258L259 84H263L265 86V92L264 93H243L242 92V88Z" fill="white"/>
</svg>
